<svg width="155" height="46" viewBox="0 0 155 46" fill="none" xmlns="http://www.w3.org/2000/svg">
<g clip-path="url(#clip0_2106_6815)">
<path d="M149.252 0H6.2439C3.08466 0 0.52359 2.56777 0.52359 5.73526V40.1469C0.52359 43.3144 3.08466 45.8821 6.2439 45.8821H149.252C152.411 45.8821 154.972 43.3144 154.972 40.1469V5.73526C154.972 2.56777 152.411 0 149.252 0Z" fill="black"/>
<path d="M149.252 0.917643C150.526 0.917643 151.748 1.42521 152.649 2.32869C153.55 3.23217 154.057 4.45755 154.057 5.73526V40.1469C154.057 41.4246 153.55 42.6499 152.649 43.5534C151.748 44.4569 150.526 44.9645 149.252 44.9645H6.2439C4.96952 44.9645 3.74733 44.4569 2.84621 43.5534C1.94508 42.6499 1.43884 41.4246 1.43884 40.1469V5.73526C1.43884 4.45755 1.94508 3.23217 2.84621 2.32869C3.74733 1.42521 4.96952 0.917643 6.2439 0.917643H149.252ZM149.252 0H6.2439C4.72678 0 3.27179 0.604249 2.19903 1.67982C1.12626 2.75539 0.52359 4.21418 0.52359 5.73526V40.1469C0.52359 41.6679 1.12626 43.1267 2.19903 44.2023C3.27179 45.2779 4.72678 45.8821 6.2439 45.8821H149.252C150.769 45.8821 152.224 45.2779 153.296 44.2023C154.369 43.1267 154.972 41.6679 154.972 40.1469V5.73526C154.972 4.21418 154.369 2.75539 153.296 1.67982C152.224 0.604249 150.769 0 149.252 0Z" fill="#A6A6A6"/>
<path d="M37.2625 22.1529C37.2309 18.6304 40.1392 16.9167 40.2722 16.8369C38.6251 14.4292 36.0722 14.1003 35.1751 14.074C33.0309 13.8478 30.951 15.3604 29.8588 15.3604C28.7447 15.3604 27.0628 14.0959 25.25 14.1331C22.9172 14.1691 20.7349 15.5233 19.538 17.626C17.0679 21.9135 18.9101 28.2142 21.2767 31.6799C22.4605 33.3772 23.8438 35.2723 25.6544 35.2056C27.4258 35.1324 28.0874 34.0734 30.2251 34.0734C32.3431 34.0734 32.9644 35.2056 34.811 35.163C36.7121 35.1324 37.909 33.4581 39.0513 31.7454C40.4194 29.8001 40.9688 27.8842 40.9906 27.7858C40.9459 27.7705 37.2985 26.3748 37.2625 22.1529Z" fill="white"/>
<path d="M33.7744 11.7943C34.7271 10.5998 35.3789 8.9746 35.198 7.32538C33.8191 7.38658 32.0946 8.28168 31.1015 9.45002C30.2229 10.4795 29.4381 12.167 29.6408 13.7539C31.1898 13.8698 32.7802 12.9703 33.7744 11.7943Z" fill="white"/>
<path d="M62.8973 34.9619H60.4218L59.0657 30.6896H54.3523L53.0606 34.9619H50.6504L55.3203 20.4173H58.2046L62.8973 34.9619ZM58.657 28.8973L57.4306 25.0994C57.3009 24.7114 57.0578 23.7977 56.6992 22.3594H56.6556C56.5128 22.978 56.2828 23.8917 55.9667 25.0994L54.7622 28.8973H58.657V28.8973Z" fill="white"/>
<path d="M74.9063 29.5891C74.9063 31.3727 74.4256 32.7826 73.4641 33.8176C72.603 34.7389 71.5336 35.199 70.2571 35.199C68.8793 35.199 67.8895 34.7029 67.2867 33.7105H67.2431V39.2352H64.9191V27.9268C64.9191 26.8054 64.8896 25.6546 64.833 24.4742H66.8768L67.0066 26.1366H67.0502C67.8252 24.8841 69.0014 24.2589 70.5798 24.2589C71.8138 24.2589 72.8439 24.7475 73.668 25.7256C74.4942 26.7049 74.9063 27.9923 74.9063 29.5891ZM72.5387 29.6743C72.5387 28.6535 72.3097 27.812 71.8497 27.1497C71.3472 26.459 70.6725 26.1136 69.8266 26.1136C69.2532 26.1136 68.7321 26.306 68.2667 26.6852C67.8001 27.0677 67.4949 27.5672 67.3521 28.1858C67.2802 28.4743 67.2442 28.7104 67.2442 28.8962V30.6448C67.2442 31.4077 67.4775 32.0514 67.944 32.5771C68.4106 33.1028 69.0166 33.3651 69.7622 33.3651C70.6376 33.3651 71.3189 33.0263 71.8061 32.3509C72.2945 31.6744 72.5387 30.7826 72.5387 29.6743Z" fill="white"/>
<path d="M86.9378 29.5891C86.9378 31.3727 86.4571 32.7826 85.4946 33.8176C84.6345 34.7389 83.5651 35.199 82.2887 35.199C80.9108 35.199 79.921 34.7029 79.3193 33.7105H79.2757V39.2352H76.9517V27.9268C76.9517 26.8054 76.9223 25.6546 76.8656 24.4742H78.9094L79.0392 26.1366H79.0828C79.8567 24.8841 81.0329 24.2589 82.6124 24.2589C83.8453 24.2589 84.8754 24.7475 85.7017 25.7256C86.5247 26.7049 86.9378 27.9923 86.9378 29.5891ZM84.5702 29.6743C84.5702 28.6535 84.3402 27.812 83.8802 27.1497C83.3776 26.459 82.7051 26.1136 81.8581 26.1136C81.2836 26.1136 80.7637 26.306 80.2971 26.6852C79.8306 27.0677 79.5264 27.5672 79.3836 28.1858C79.3128 28.4743 79.2757 28.7104 79.2757 28.8962V30.6448C79.2757 31.4077 79.509 32.0514 79.9734 32.5771C80.4399 33.1017 81.046 33.3651 81.7938 33.3651C82.6691 33.3651 83.3504 33.0263 83.8377 32.3509C84.326 31.6744 84.5702 30.7826 84.5702 29.6743Z" fill="white"/>
<path d="M100.389 30.8832C100.389 32.1204 99.961 33.127 99.1009 33.904C98.1558 34.7532 96.8401 35.1773 95.1494 35.1773C93.5884 35.1773 92.337 34.8756 91.3898 34.2713L91.9283 32.3291C92.9486 32.9477 94.0681 33.2581 95.2879 33.2581C96.1632 33.2581 96.8445 33.0592 97.3339 32.6636C97.8212 32.2679 98.0643 31.7368 98.0643 31.0745C98.0643 30.4843 97.8637 29.987 97.4615 29.5837C97.0614 29.1804 96.3932 28.8056 95.4601 28.4591C92.9202 27.5094 91.6514 26.1181 91.6514 24.2885C91.6514 23.0929 92.0961 22.1125 92.9867 21.3497C93.874 20.5857 95.0579 20.2043 96.5382 20.2043C97.8582 20.2043 98.9549 20.4349 99.8302 20.895L99.2492 22.7945C98.4316 22.3486 97.5072 22.1257 96.4728 22.1257C95.6552 22.1257 95.0164 22.3278 94.5586 22.73C94.1716 23.0896 93.9776 23.5279 93.9776 24.047C93.9776 24.6219 94.1989 25.0973 94.6436 25.4711C95.0306 25.8164 95.7337 26.1902 96.754 26.5935C98.0021 27.0973 98.9189 27.6864 99.5086 28.3618C100.096 29.0351 100.389 29.8777 100.389 30.8832Z" fill="white"/>
<path d="M108.073 26.2229H105.511V31.3148C105.511 32.6099 105.963 33.2569 106.867 33.2569C107.283 33.2569 107.627 33.2208 107.9 33.1487L107.964 34.9181C107.506 35.0897 106.903 35.1761 106.157 35.1761C105.239 35.1761 104.522 34.8952 104.004 34.3345C103.488 33.7727 103.229 32.8306 103.229 31.5071V26.2207H101.703V24.472H103.229V22.5517L105.511 21.861V24.472H108.073V26.2229Z" fill="white"/>
<path d="M119.631 29.6319C119.631 31.244 119.171 32.5675 118.253 33.6025C117.291 34.6681 116.013 35.1992 114.421 35.1992C112.886 35.1992 111.664 34.6888 110.753 33.6681C109.841 32.6473 109.386 31.3587 109.386 29.8057C109.386 28.1805 109.854 26.8493 110.795 25.8143C111.734 24.7782 113 24.2602 114.593 24.2602C116.128 24.2602 117.363 24.7706 118.295 25.7925C119.186 26.7838 119.631 28.0636 119.631 29.6319ZM117.22 29.7073C117.22 28.7401 117.014 27.9106 116.596 27.2187C116.109 26.3816 115.413 25.9641 114.51 25.9641C113.576 25.9641 112.866 26.3827 112.379 27.2187C111.961 27.9116 111.755 28.7543 111.755 29.751C111.755 30.7183 111.961 31.5478 112.379 32.2385C112.881 33.0757 113.583 33.4932 114.489 33.4932C115.377 33.4932 116.073 33.0669 116.576 32.2167C117.004 31.5117 117.22 30.6735 117.22 29.7073Z" fill="white"/>
<path d="M127.185 26.5234C126.955 26.4808 126.71 26.459 126.452 26.459C125.635 26.459 125.002 26.7683 124.558 27.3879C124.171 27.9344 123.977 28.6251 123.977 29.459V34.9619H121.654L121.676 27.777C121.676 26.5683 121.646 25.4677 121.588 24.4753H123.613L123.698 26.4819H123.762C124.007 25.7923 124.394 25.2371 124.924 24.8207C125.442 24.4458 126.001 24.2589 126.604 24.2589C126.819 24.2589 127.013 24.2742 127.185 24.3015V26.5234Z" fill="white"/>
<path d="M137.579 29.222C137.579 29.6395 137.551 29.9914 137.494 30.2788H130.522C130.549 31.3149 130.886 32.1073 131.533 32.6537C132.121 33.1423 132.881 33.3871 133.814 33.3871C134.846 33.3871 135.788 33.222 136.635 32.8909L136.999 34.5084C136.009 34.9412 134.84 35.1565 133.492 35.1565C131.87 35.1565 130.597 34.6778 129.67 33.7215C128.746 32.7652 128.283 31.481 128.283 29.8701C128.283 28.2886 128.713 26.9716 129.575 25.9214C130.478 24.8 131.698 24.2394 133.233 24.2394C134.74 24.2394 135.881 24.8 136.656 25.9214C137.27 26.8121 137.579 27.9137 137.579 29.222ZM135.363 28.6176C135.378 27.9269 135.226 27.3301 134.911 26.8263C134.509 26.1782 133.891 25.8547 133.059 25.8547C132.299 25.8547 131.681 26.1705 131.209 26.8044C130.822 27.3083 130.592 27.9127 130.522 28.6165H135.363V28.6176Z" fill="white"/>
<path d="M57.8888 11.47C57.8888 12.7563 57.504 13.7246 56.7355 14.3749C56.0237 14.9749 55.0121 15.2755 53.7018 15.2755C53.0522 15.2755 52.4962 15.2471 52.0308 15.1902V8.16169C52.6379 8.06332 53.292 8.01305 53.9983 8.01305C55.2465 8.01305 56.1872 8.28519 56.8216 8.82946C57.5323 9.44477 57.8888 10.3246 57.8888 11.47ZM56.6843 11.5016C56.6843 10.6678 56.4641 10.0284 56.0237 9.58248C55.5833 9.13766 54.9402 8.91471 54.0932 8.91471C53.7334 8.91471 53.4271 8.93875 53.1732 8.98903V14.3323C53.3138 14.3542 53.571 14.364 53.9449 14.364C54.8192 14.364 55.4939 14.1203 55.9692 13.6328C56.4444 13.1454 56.6843 12.435 56.6843 11.5016Z" fill="white"/>
<path d="M64.2755 12.5933C64.2755 13.3857 64.0499 14.0349 63.5986 14.5442C63.1255 15.0677 62.4987 15.3289 61.716 15.3289C60.9617 15.3289 60.3611 15.0786 59.9131 14.5759C59.4661 14.0742 59.2427 13.4414 59.2427 12.6786C59.2427 11.8807 59.4727 11.2261 59.9349 10.7179C60.397 10.2097 61.0184 9.95501 61.801 9.95501C62.5554 9.95501 63.1614 10.2053 63.6204 10.7069C64.0564 11.1944 64.2755 11.8239 64.2755 12.5933ZM63.0906 12.6305C63.0906 12.1551 62.9881 11.7474 62.7843 11.4075C62.5445 10.9966 62.2033 10.7911 61.7596 10.7911C61.3007 10.7911 60.9519 10.9966 60.7121 11.4075C60.5071 11.7474 60.4058 12.1616 60.4058 12.6512C60.4058 13.1267 60.5082 13.5343 60.7121 13.8742C60.9595 14.2852 61.304 14.4906 61.7487 14.4906C62.1847 14.4906 62.527 14.2819 62.7734 13.8633C62.9849 13.5168 63.0906 13.1059 63.0906 12.6305Z" fill="white"/>
<path d="M72.8389 10.0598L71.2311 15.2118H70.1846L69.5186 12.9746C69.3496 12.4161 69.2123 11.8609 69.1055 11.3101H69.0847C68.9856 11.8762 68.8482 12.4303 68.6716 12.9746L67.9642 15.2118H66.9057L65.3938 10.0598H66.5678L67.1488 12.509C67.2894 13.0883 67.405 13.6402 67.4976 14.1626H67.5183C67.6033 13.732 67.744 13.1834 67.9424 12.52L68.6716 10.0609H69.6025L70.3013 12.4675C70.4702 13.0544 70.6076 13.6194 70.7133 14.1637H70.7449C70.8223 13.6336 70.939 13.0686 71.0937 12.4675L71.7173 10.0609H72.8389V10.0598Z" fill="white"/>
<path d="M78.7614 15.212H77.619V12.2611C77.619 11.3518 77.2745 10.8972 76.5834 10.8972C76.2444 10.8972 75.9708 11.0218 75.7582 11.272C75.5479 11.5223 75.441 11.8174 75.441 12.1551V15.2109H74.2986V11.5322C74.2986 11.0797 74.2845 10.589 74.2572 10.0578H75.2612L75.3146 10.8633H75.3462C75.4792 10.613 75.6776 10.4065 75.9381 10.2414C76.2477 10.0491 76.5943 9.9518 76.9737 9.9518C77.4533 9.9518 77.8523 10.107 78.1695 10.4185C78.5641 10.7999 78.7614 11.3693 78.7614 12.1256V15.212V15.212Z" fill="white"/>
<path d="M81.9116 15.212H80.7703V7.69604H81.9116V15.212Z" fill="white"/>
<path d="M88.6374 12.5933C88.6374 13.3857 88.4118 14.0349 87.9605 14.5442C87.4874 15.0677 86.8595 15.3289 86.078 15.3289C85.3226 15.3289 84.7219 15.0786 84.275 14.5759C83.8281 14.0742 83.6046 13.4414 83.6046 12.6786C83.6046 11.8807 83.8346 11.2261 84.2968 10.7179C84.759 10.2097 85.3803 9.95501 86.1619 9.95501C86.9173 9.95501 87.5223 10.2053 87.9823 10.7069C88.4183 11.1944 88.6374 11.8239 88.6374 12.5933ZM87.4514 12.6305C87.4514 12.1551 87.349 11.7474 87.1451 11.4075C86.9064 10.9966 86.5641 10.7911 86.1216 10.7911C85.6616 10.7911 85.3127 10.9966 85.074 11.4075C84.8691 11.7474 84.7677 12.1616 84.7677 12.6512C84.7677 13.1267 84.8702 13.5343 85.074 13.8742C85.3215 14.2852 85.6659 14.4906 86.1107 14.4906C86.5467 14.4906 86.8879 14.2819 87.1342 13.8633C87.3468 13.5168 87.4514 13.1059 87.4514 12.6305Z" fill="white"/>
<path d="M94.1662 15.2119H93.1405L93.0554 14.6185H93.0238C92.6728 15.0917 92.1725 15.3289 91.5228 15.3289C91.0377 15.3289 90.6453 15.1726 90.3499 14.8622C90.0817 14.5802 89.9476 14.2294 89.9476 13.813C89.9476 13.1835 90.2092 12.7037 90.7358 12.3715C91.2612 12.0392 92.0002 11.8764 92.9519 11.884V11.7878C92.9519 11.1091 92.5965 10.7703 91.8847 10.7703C91.3778 10.7703 90.9309 10.8982 90.545 11.1518L90.3128 10.3998C90.7903 10.1036 91.38 9.95501 92.0755 9.95501C93.4184 9.95501 94.0921 10.6654 94.0921 12.0862V13.9835C94.0921 14.4983 94.1172 14.9081 94.1662 15.2119ZM92.9802 13.4414V12.6469C91.7201 12.625 91.09 12.9715 91.09 13.6851C91.09 13.954 91.162 14.1551 91.3091 14.2895C91.4563 14.424 91.6438 14.4906 91.8673 14.4906C92.118 14.4906 92.3523 14.4108 92.566 14.2524C92.7807 14.0928 92.9126 13.8906 92.9617 13.6425C92.9737 13.5868 92.9802 13.519 92.9802 13.4414Z" fill="white"/>
<path d="M100.657 15.212H99.6433L99.5899 14.3847H99.5583C99.2345 15.0142 98.683 15.329 97.9079 15.329C97.2888 15.329 96.7732 15.0853 96.3644 14.5978C95.9556 14.1104 95.7518 13.4776 95.7518 12.7005C95.7518 11.8666 95.9731 11.1912 96.4178 10.6753C96.8484 10.1945 97.376 9.95401 98.0039 9.95401C98.6939 9.95401 99.1768 10.1868 99.4515 10.6535H99.4733V7.69604H100.617V13.824C100.617 14.3257 100.63 14.788 100.657 15.212ZM99.4733 13.0393V12.1803C99.4733 12.0316 99.4624 11.9114 99.4417 11.8196C99.3773 11.5442 99.2389 11.3125 99.0285 11.1256C98.816 10.9387 98.5598 10.8447 98.2644 10.8447C97.8382 10.8447 97.5046 11.0141 97.2593 11.354C97.0162 11.6939 96.8931 12.1278 96.8931 12.6579C96.8931 13.1672 97.0097 13.5803 97.2441 13.8984C97.4915 14.2372 97.8251 14.4066 98.2426 14.4066C98.6176 14.4066 98.9173 14.2656 99.1452 13.9825C99.3654 13.7213 99.4733 13.4065 99.4733 13.0393Z" fill="white"/>
<path d="M110.428 12.5933C110.428 13.3857 110.202 14.0349 109.751 14.5442C109.278 15.0677 108.652 15.3289 107.868 15.3289C107.115 15.3289 106.514 15.0786 106.065 14.5759C105.618 14.0742 105.395 13.4414 105.395 12.6786C105.395 11.8807 105.625 11.2261 106.087 10.7179C106.549 10.2097 107.171 9.95501 107.954 9.95501C108.708 9.95501 109.315 10.2053 109.773 10.7069C110.209 11.1944 110.428 11.8239 110.428 12.5933ZM109.244 12.6305C109.244 12.1551 109.141 11.7474 108.938 11.4075C108.697 10.9966 108.357 10.7911 107.912 10.7911C107.454 10.7911 107.105 10.9966 106.864 11.4075C106.659 11.7474 106.558 12.1616 106.558 12.6512C106.558 13.1267 106.66 13.5343 106.864 13.8742C107.112 14.2852 107.456 14.4906 107.901 14.4906C108.337 14.4906 108.68 14.2819 108.927 13.8633C109.137 13.5168 109.244 13.1059 109.244 12.6305Z" fill="white"/>
<path d="M116.57 15.212H115.429V12.2611C115.429 11.3518 115.084 10.8972 114.392 10.8972C114.053 10.8972 113.78 11.0218 113.568 11.272C113.357 11.5223 113.251 11.8174 113.251 12.1551V15.2109H112.107V11.5322C112.107 11.0797 112.094 10.589 112.067 10.0578H113.07L113.123 10.8633H113.155C113.289 10.613 113.487 10.4065 113.747 10.2414C114.058 10.0491 114.403 9.9518 114.784 9.9518C115.262 9.9518 115.661 10.107 115.978 10.4185C116.374 10.7999 116.57 11.3693 116.57 12.1256V15.212V15.212Z" fill="white"/>
<path d="M124.258 10.9178H123V13.4206C123 14.0567 123.224 14.3747 123.666 14.3747C123.871 14.3747 124.041 14.3573 124.176 14.3212L124.205 15.1901C123.979 15.2753 123.683 15.3179 123.318 15.3179C122.866 15.3179 122.515 15.1802 122.261 14.9048C122.006 14.6294 121.88 14.166 121.88 13.5157V10.9178H121.129V10.0599H121.88V9.11561L122.999 8.77681V10.0588H124.257V10.9178H124.258Z" fill="white"/>
<path d="M130.307 15.212H129.163V12.283C129.163 11.3595 128.819 10.8972 128.129 10.8972C127.599 10.8972 127.237 11.165 127.039 11.7005C127.005 11.8131 126.985 11.9508 126.985 12.1125V15.211H125.844V7.69604H126.985V10.801H127.007C127.367 10.236 127.882 9.95401 128.55 9.95401C129.024 9.95401 129.415 10.1092 129.726 10.4207C130.113 10.8087 130.307 11.3857 130.307 12.1486V15.212V15.212Z" fill="white"/>
<path d="M136.545 12.3923C136.545 12.5978 136.53 12.7705 136.502 12.9115H133.076C133.092 13.4208 133.255 13.8087 133.572 14.0776C133.862 14.318 134.236 14.4383 134.694 14.4383C135.201 14.4383 135.663 14.3574 136.08 14.1945L136.258 14.9902C135.771 15.2022 135.198 15.3082 134.534 15.3082C133.738 15.3082 133.111 15.0733 132.658 14.6033C132.202 14.1333 131.977 13.5027 131.977 12.7115C131.977 11.9344 132.187 11.2874 132.611 10.7715C133.053 10.2207 133.652 9.94527 134.407 9.94527C135.146 9.94527 135.708 10.2207 136.087 10.7715C136.393 11.2087 136.545 11.7497 136.545 12.3923ZM135.455 12.0961C135.464 11.7562 135.388 11.4633 135.234 11.2163C135.035 10.8983 134.733 10.7387 134.325 10.7387C133.952 10.7387 133.648 10.8939 133.415 11.2054C133.226 11.4535 133.113 11.7497 133.076 12.0961H135.455Z" fill="white"/>
</g>
<defs>
<clipPath id="clip0_2106_6815">
<rect width="154.448" height="45.8821" fill="white" transform="translate(0.52359)"/>
</clipPath>
</defs>
</svg>
