<svg width="24" height="24" viewBox="0 0 24 24" fill="none" xmlns="http://www.w3.org/2000/svg">
<g clip-path="url(#clip0_2158_7847)">
<path fill-rule="evenodd" clip-rule="evenodd" d="M15.577 23.3687H6.753C3.312 23.3687 1 20.9537 1 17.3597V9.04571C1 5.45171 3.312 3.03671 6.753 3.03671H10.492C10.906 3.03671 11.242 3.37271 11.242 3.78671C11.242 4.20071 10.906 4.53671 10.492 4.53671H6.753C4.169 4.53671 2.5 6.30671 2.5 9.04571V17.3597C2.5 20.0987 4.169 21.8687 6.753 21.8687H15.577C18.161 21.8687 19.831 20.0987 19.831 17.3597V13.3317C19.831 12.9177 20.167 12.5817 20.581 12.5817C20.995 12.5817 21.331 12.9177 21.331 13.3317V17.3597C21.331 20.9537 19.018 23.3687 15.577 23.3687" fill="white"/>
<path d="M22.4475 9.67479L22.3775 3.60114C22.3704 3.07282 22.1546 2.56875 21.7772 2.19902C21.3997 1.8293 20.8913 1.62396 20.3629 1.62786L14.2891 1.68371C14.0249 1.68723 13.7729 1.79514 13.588 1.98387C13.4032 2.17261 13.3005 2.42682 13.3025 2.691C13.3033 2.82301 13.3303 2.95355 13.3818 3.07509C13.4333 3.19663 13.5084 3.30676 13.6027 3.39914C13.697 3.49151 13.8087 3.5643 13.9313 3.6133C14.0538 3.6623 14.1849 3.68655 14.3169 3.68464L18.9694 3.63645L8.77525 13.8003C8.58967 13.9898 8.48695 14.2452 8.4897 14.5104C8.49244 14.7756 8.60043 15.0289 8.7899 15.2144C8.97937 15.4 9.2348 15.5027 9.5 15.5C9.7652 15.4973 10.0185 15.3893 10.204 15.1998L20.3982 5.03593L20.4464 9.68845C20.4482 9.95381 20.5554 10.2076 20.7443 10.3939C20.9332 10.5803 21.1884 10.684 21.4538 10.6822C21.7191 10.6803 21.9729 10.5732 22.1593 10.3843C22.3456 10.1954 22.4493 9.94015 22.4475 9.67479Z" fill="white"/>
</g>
<defs>
<clipPath id="clip0_2158_7847">
<rect width="24" height="24" fill="white"/>
</clipPath>
</defs>
</svg>
