<svg width="152" height="46" viewBox="0 0 152 46" fill="none" xmlns="http://www.w3.org/2000/svg">
<g clip-path="url(#clip0_2106_6816)">
<path d="M146.267 0H5.65274C2.54637 0 0.0281677 2.56777 0.0281677 5.73526V40.1469C0.0281677 43.3144 2.54637 45.8821 5.65274 45.8821H146.267C149.373 45.8821 151.891 43.3144 151.891 40.1469V5.73526C151.891 2.56777 149.373 0 146.267 0Z" fill="black"/>
<path d="M146.267 0.917643C147.52 0.917643 148.722 1.42521 149.608 2.32869C150.494 3.23217 150.992 4.45755 150.992 5.73526V40.1469C150.992 41.4246 150.494 42.6499 149.608 43.5534C148.722 44.4569 147.52 44.9645 146.267 44.9645H5.65274C4.39968 44.9645 3.19795 44.4569 2.31191 43.5534C1.42587 42.6499 0.928099 41.4246 0.928099 40.1469V5.73526C0.928099 4.45755 1.42587 3.23217 2.31191 2.32869C3.19795 1.42521 4.39968 0.917643 5.65274 0.917643H146.267ZM146.267 0H5.65274C4.16101 0 2.73038 0.604249 1.67557 1.67982C0.620754 2.75539 0.0281677 4.21418 0.0281677 5.73526V40.1469C0.0281677 41.6679 0.620754 43.1267 1.67557 44.2023C2.73038 45.2779 4.16101 45.8821 5.65274 45.8821H146.267C147.759 45.8821 149.189 45.2779 150.244 44.2023C151.299 43.1267 151.892 41.6679 151.892 40.1469V5.73526C151.892 4.21418 151.299 2.75539 150.244 1.67982C149.189 0.604249 147.759 0 146.267 0Z" fill="#A6A6A6"/>
<path d="M76.6799 24.9483C75.7353 24.9528 74.8132 25.2426 74.03 25.781C73.2467 26.3194 72.6375 27.0824 72.2791 27.9735C71.9207 28.8647 71.8292 29.8442 72.0162 30.7883C72.2032 31.7324 72.6603 32.5989 73.3298 33.2784C73.9993 33.9579 74.8512 34.4199 75.778 34.6062C76.7048 34.7924 77.6649 34.6946 78.5372 34.3249C79.4095 33.9553 80.1548 33.3304 80.6791 32.5293C81.2035 31.7281 81.4833 30.7865 81.4833 29.8233C81.4925 29.1785 81.3744 28.5385 81.1359 27.9413C80.8975 27.3441 80.5437 26.802 80.0955 26.3471C79.6473 25.8923 79.1139 25.534 78.5272 25.2937C77.9404 25.0534 77.3122 24.9359 76.6799 24.9483V24.9483ZM76.6799 32.7827C76.099 32.8241 75.5193 32.6864 75.0162 32.3874C74.513 32.0884 74.1097 31.642 73.8587 31.1062C73.6077 30.5704 73.5205 29.9699 73.6086 29.383C73.6966 28.796 73.9558 28.2496 74.3525 27.8148C74.7491 27.38 75.2648 27.077 75.8326 26.945C76.4004 26.8131 76.994 26.8584 77.5362 27.075C78.0784 27.2916 78.5442 27.6696 78.873 28.1597C79.2017 28.6498 79.3783 29.2295 79.3797 29.8233C79.3979 30.1995 79.3419 30.5756 79.2152 30.9295C79.0885 31.2834 78.8936 31.6078 78.642 31.8836C78.3903 32.1594 78.0871 32.381 77.7501 32.5355C77.4132 32.6899 77.0493 32.7739 76.6799 32.7827ZM66.207 24.9483C65.2619 24.9506 64.3387 25.2384 63.554 25.7754C62.7692 26.3125 62.1582 27.0746 61.7981 27.9656C61.4379 28.8566 61.3449 29.8364 61.5306 30.7813C61.7163 31.7262 62.1726 32.5938 62.8416 33.2744C63.5107 33.9551 64.3626 34.4182 65.2897 34.6054C66.2168 34.7926 67.1775 34.6954 68.0504 34.326C68.9233 33.9567 69.6693 33.3319 70.1942 32.5305C70.719 31.729 70.9991 30.7869 70.9991 29.8233C71.0083 29.1785 70.8902 28.5385 70.6517 27.9413C70.4133 27.3441 70.0595 26.802 69.6113 26.3471C69.1631 25.8923 68.6297 25.534 68.043 25.2937C67.4562 25.0534 66.828 24.9359 66.1958 24.9483H66.207ZM66.207 32.7827C65.6258 32.8264 65.0451 32.6907 64.5406 32.3933C64.0361 32.0958 63.631 31.6504 63.3782 31.115C63.1254 30.5795 63.0366 29.9789 63.1233 29.3912C63.2099 28.8035 63.4681 28.2561 63.8642 27.8202C64.2602 27.3842 64.7758 27.0799 65.3438 26.9469C65.9118 26.814 66.506 26.8584 67.0488 27.0746C67.5917 27.2907 68.0582 27.6685 68.3876 28.1587C68.717 28.649 68.894 29.229 68.8955 29.8233C68.9137 30.1995 68.8577 30.5756 68.731 30.9295C68.6043 31.2834 68.4094 31.6078 68.1578 31.8836C67.9061 32.1594 67.6029 32.381 67.2659 32.5355C66.929 32.6899 66.5651 32.7739 66.1958 32.7827H66.207ZM53.7317 26.4509V28.5156H58.5913C58.5151 29.4881 58.1187 30.4057 57.4664 31.1194C56.9802 31.6244 56.3958 32.02 55.7506 32.2808C55.1055 32.5415 54.4139 32.6617 53.7205 32.6335C52.2884 32.6335 50.915 32.0535 49.9024 31.0209C48.8898 29.9884 48.3209 28.5879 48.3209 27.1277C48.3209 25.6674 48.8898 24.267 49.9024 23.2345C50.915 22.2019 52.2884 21.6218 53.7205 21.6218C55.0904 21.599 56.4132 22.1312 57.3989 23.1015L58.8276 21.6448C58.1622 20.9577 57.3683 20.4138 56.4929 20.0454C55.6176 19.6769 54.6787 19.4914 53.7317 19.4998C52.7317 19.4601 51.734 19.6267 50.7986 19.9895C49.8632 20.3524 49.0093 20.9041 48.288 21.6115C47.5667 22.319 46.9928 23.1676 46.6009 24.1066C46.2089 25.0456 46.0069 26.0556 46.0069 27.0761C46.0069 28.0966 46.2089 29.1066 46.6009 30.0456C46.9928 30.9845 47.5667 31.8332 48.288 32.5406C49.0093 33.2481 49.8632 33.7997 50.7986 34.1626C51.734 34.5255 52.7317 34.692 53.7317 34.6524C54.6946 34.6967 55.6556 34.5303 56.5501 34.1643C57.4446 33.7982 58.2519 33.2411 58.9176 32.5303C60.0961 31.21 60.7253 29.4743 60.6724 27.6897C60.6761 27.255 60.6384 26.8209 60.5599 26.3936L53.7317 26.4509ZM104.702 28.0568C104.408 27.1767 103.86 26.4082 103.128 25.8531C102.397 25.298 101.518 24.9825 100.607 24.9483C99.9915 24.9471 99.3825 25.0745 98.8174 25.3228C98.2523 25.5711 97.7431 25.935 97.3214 26.3919C96.8997 26.8488 96.5743 27.389 96.3655 27.9792C96.1567 28.5694 96.0688 29.197 96.1072 29.8233C96.0935 30.4644 96.2067 31.1017 96.44 31.6972C96.6733 32.2927 97.0219 32.8341 97.465 33.2892C97.9081 33.7442 98.4366 34.1035 99.019 34.3456C99.6013 34.5877 100.226 34.7076 100.854 34.6982C101.641 34.7026 102.417 34.5078 103.112 34.1315C103.807 33.7551 104.399 33.2089 104.837 32.5418L103.205 31.3947C102.962 31.8086 102.617 32.1509 102.205 32.3881C101.793 32.6254 101.328 32.7495 100.854 32.7482C100.367 32.7672 99.8855 32.6362 99.4722 32.3723C99.0589 32.1084 98.7331 31.7238 98.537 31.2685L104.938 28.573L104.702 28.0568ZM98.177 29.6856C98.1542 29.3308 98.2011 28.975 98.3149 28.6389C98.4286 28.3028 98.607 27.9932 98.8396 27.7283C99.0722 27.4634 99.3542 27.2484 99.6693 27.0961C99.9843 26.9437 100.326 26.8569 100.674 26.8409C101.037 26.8165 101.399 26.9014 101.715 27.0849C102.031 27.2684 102.287 27.5426 102.452 27.8733L98.177 29.6856ZM92.9799 34.4115H95.0835V20.0733H92.9799V34.4115ZM89.5377 26.038H89.459C89.1419 25.6765 88.7536 25.3875 88.3193 25.1898C87.885 24.9922 87.4147 24.8903 86.9392 24.8909C85.7098 24.9517 84.5506 25.4925 83.7016 26.4011C82.8527 27.3098 82.3791 28.5167 82.3791 29.7716C82.3791 31.0266 82.8527 32.2335 83.7016 33.1422C84.5506 34.0508 85.7098 34.5916 86.9392 34.6524C87.4159 34.6605 87.8885 34.5621 88.3239 34.3639C88.7592 34.1657 89.1467 33.8726 89.459 33.5053H89.5265V34.205C89.5265 36.0747 88.5478 37.0726 86.9729 37.0726C86.4484 37.0601 85.9394 36.8887 85.5107 36.5803C85.082 36.2718 84.753 35.8403 84.5656 35.3406L82.732 36.1206C83.0771 36.9767 83.6652 37.7081 84.4209 38.2211C85.1765 38.7341 86.0652 39.0052 86.9729 38.9997C89.4365 38.9997 91.4726 37.52 91.4726 33.9182V25.235H89.5377V26.038ZM87.1304 32.7827C86.4048 32.7175 85.7294 32.3774 85.2375 31.8297C84.7455 31.2819 84.4726 30.566 84.4726 29.8233C84.4726 29.0805 84.7455 28.3647 85.2375 27.8169C85.7294 27.2691 86.4048 26.9291 87.1304 26.8639C87.4902 26.8827 87.8426 26.9747 88.167 27.1346C88.4913 27.2945 88.781 27.5189 89.019 27.7947C89.2569 28.0705 89.4384 28.392 89.5526 28.7404C89.6668 29.0888 89.7114 29.457 89.6839 29.8233C89.7146 30.1911 89.6718 30.5615 89.5581 30.912C89.4444 31.2625 89.2622 31.5858 89.0225 31.8625C88.7827 32.1391 88.4904 32.3633 88.1633 32.5215C87.8361 32.6796 87.4809 32.7685 87.1191 32.7827H87.1304ZM114.556 20.0733H109.527V34.4115H111.631V28.9744H114.567C115.167 29.0184 115.769 28.9359 116.335 28.7321C116.902 28.5283 117.422 28.2077 117.862 27.7901C118.302 27.3725 118.653 26.867 118.893 26.3051C119.133 25.7431 119.257 25.1368 119.257 24.5239C119.257 23.911 119.133 23.3046 118.893 22.7427C118.653 22.1807 118.302 21.6752 117.862 21.2576C117.422 20.8401 116.902 20.5194 116.335 20.3156C115.769 20.1119 115.167 20.0294 114.567 20.0733H114.556ZM114.556 26.9556H111.62V22.0692H114.601C115.241 22.0692 115.854 22.3284 116.307 22.7898C116.76 23.2512 117.014 23.8771 117.014 24.5296C117.014 25.1822 116.76 25.808 116.307 26.2694C115.854 26.7308 115.241 26.99 114.601 26.99L114.556 26.9556ZM127.526 24.8909C126.76 24.8443 125.998 25.0267 125.332 25.416C124.667 25.8052 124.127 26.3842 123.78 27.0818L125.647 27.8733C125.832 27.5273 126.11 27.2433 126.45 27.0559C126.789 26.8686 127.175 26.7859 127.56 26.818C127.827 26.7862 128.097 26.8089 128.356 26.8849C128.614 26.9608 128.855 27.0885 129.064 27.2604C129.274 27.4323 129.448 27.645 129.576 27.8861C129.703 28.1273 129.783 28.3919 129.81 28.6647V28.8139C129.134 28.4491 128.381 28.26 127.616 28.2633C125.602 28.2633 123.566 29.4103 123.566 31.4865C123.586 31.9292 123.693 32.3633 123.88 32.7632C124.067 33.1631 124.331 33.5207 124.657 33.8148C124.982 34.1089 125.361 34.3335 125.773 34.4754C126.185 34.6173 126.62 34.6735 127.054 34.6409C127.583 34.6797 128.114 34.5723 128.589 34.3301C129.064 34.088 129.466 33.7198 129.753 33.2644H129.821V34.4115H131.846V28.8941C131.846 26.3821 129.978 24.9253 127.582 24.9253L127.526 24.8909ZM127.267 32.7482C126.581 32.7482 125.625 32.3927 125.625 31.5324C125.625 30.3853 126.817 30.0068 127.875 30.0068C128.543 29.99 129.203 30.1564 129.787 30.4886C129.717 31.1096 129.429 31.6837 128.976 32.1053C128.523 32.5269 127.936 32.7674 127.324 32.7827L127.267 32.7482ZM139.225 25.235L136.818 31.4521H136.75L134.253 25.235H132.003L135.749 33.9297L133.612 38.7588H135.805L141.565 25.235H139.225ZM120.315 34.4115H122.419V20.0733H120.315V34.4115Z" fill="white"/>
<path d="M53.3014 11.8174C53.3205 12.2382 53.2556 12.6585 53.1105 13.0528C52.9655 13.4472 52.7434 13.8074 52.4577 14.1115C52.1387 14.4495 51.7534 14.715 51.327 14.8909C50.9006 15.0668 50.4426 15.1491 49.9829 15.1324C49.2854 15.1269 48.6051 14.9115 48.0271 14.5134C47.4491 14.1153 46.9992 13.5521 46.7338 12.8944C46.4683 12.2367 46.3991 11.5138 46.5349 10.8162C46.6706 10.1185 47.0052 9.47729 47.4968 8.97275C47.8199 8.63641 48.2072 8.37126 48.6349 8.19369C49.0625 8.01612 49.5213 7.92991 49.9829 7.9404C50.4584 7.93879 50.9293 8.03637 51.3665 8.22717C51.7736 8.39458 52.1359 8.65795 52.4239 8.99569L51.8277 9.60363C51.6032 9.33131 51.3197 9.11597 50.9995 8.97463C50.6793 8.83328 50.3313 8.76981 49.9829 8.78922C49.6315 8.78746 49.2834 8.85808 48.9594 8.99682C48.6355 9.13557 48.3423 9.3396 48.0976 9.59668C47.8528 9.85375 47.6615 10.1586 47.535 10.4929C47.4086 10.8272 47.3497 11.1841 47.3618 11.5421C47.3545 12.0768 47.5025 12.6018 47.7874 13.0507C48.0723 13.4997 48.4812 13.8525 48.9625 14.0648C49.4438 14.2771 49.976 14.3392 50.492 14.2434C51.0079 14.1477 51.4844 13.8982 51.8615 13.5266C52.2076 13.1441 52.4073 12.6473 52.4239 12.1271H49.9829V11.3013H53.2564C53.2864 11.4716 53.3014 11.6444 53.3014 11.8174ZM58.4535 8.94981H55.4162V11.1292H58.1835V11.9551H55.4162V14.1345H58.4535V14.9833H54.5163V8.10099H58.4535V8.94981ZM62.1432 14.9833H61.277V8.94981H59.3872V8.10099H64.078V8.94981H62.1432V14.9833ZM67.3853 14.9833V8.10099H68.2515V14.9833H67.3853ZM72.0987 14.9833H71.2325V8.94981H69.3426V8.10099H73.9773V8.94981H72.0987V14.9833ZM82.7629 14.0886C82.1052 14.7554 81.2155 15.1298 80.2881 15.1298C79.3606 15.1298 78.4709 14.7554 77.8132 14.0886C77.174 13.3987 76.8179 12.4855 76.8179 11.5364C76.8179 10.5873 77.174 9.67415 77.8132 8.98422C78.1374 8.65128 78.5229 8.38704 78.9477 8.20671C79.3724 8.02639 79.828 7.93356 80.2881 7.93356C80.7481 7.93356 81.2037 8.02639 81.6284 8.20671C82.0532 8.38704 82.4387 8.65128 82.7629 8.98422C83.4046 9.67283 83.7624 10.5865 83.7624 11.5364C83.7624 12.4864 83.4046 13.4 82.7629 14.0886ZM78.4544 13.5151C78.9414 14.0096 79.6008 14.2872 80.2881 14.2872C80.9754 14.2872 81.6347 14.0096 82.1217 13.5151C82.6023 12.9748 82.8685 12.2715 82.8685 11.5421C82.8685 10.8127 82.6023 10.1095 82.1217 9.56922C81.6347 9.0747 80.9754 8.79705 80.2881 8.79705C79.6008 8.79705 78.9414 9.0747 78.4544 9.56922C77.9738 10.1095 77.7076 10.8127 77.7076 11.5421C77.7076 12.2715 77.9738 12.9748 78.4544 13.5151ZM84.9789 14.9833V8.10099H86.0364L89.3211 13.4577V8.10099H90.1873V14.9833H89.2874L85.8564 9.37422V14.9833H84.9789Z" fill="white"/>
<path fill-rule="evenodd" clip-rule="evenodd" d="M80.2881 8.04826C79.8428 8.04826 79.402 8.1381 78.9909 8.31261C78.5803 8.48693 78.2075 8.7423 77.8941 9.06402C77.2752 9.73253 76.9304 10.6171 76.9304 11.5364C76.9304 12.4556 77.2751 13.3401 77.8938 14.0085C78.5302 14.6532 79.3909 15.015 80.2881 15.015C81.1852 15.015 82.046 14.6532 82.6824 14.0084C83.3036 13.3413 83.6499 12.4564 83.6499 11.5364C83.6499 10.6163 83.3035 9.73136 82.6822 9.06417C82.3687 8.74238 81.9959 8.48696 81.5852 8.31261C81.1741 8.1381 80.7333 8.04826 80.2881 8.04826ZM78.9044 8.10082C79.3429 7.91468 79.8131 7.81885 80.2881 7.81885C80.763 7.81885 81.2332 7.91468 81.6717 8.10082C82.1101 8.28696 82.5081 8.55973 82.8427 8.90341L82.8444 8.90519C83.506 9.61511 83.8749 10.5571 83.8749 11.5364C83.8749 12.5158 83.506 13.4577 82.8444 14.1676L82.8422 14.17C82.1635 14.8582 81.2452 15.2445 80.2881 15.2445C79.3309 15.2445 78.4126 14.8582 77.7339 14.1699L77.7314 14.1674C77.0725 13.4562 76.7054 12.5148 76.7054 11.5364C76.7054 10.558 77.0725 9.61667 77.7315 8.90545L77.7334 8.90338C78.068 8.5597 78.466 8.28696 78.9044 8.10082ZM49.9804 8.05508C49.5342 8.04494 49.0906 8.12827 48.6773 8.29992C48.2639 8.47157 47.8895 8.72789 47.5772 9.05302L47.5766 9.0536C47.1006 9.54212 46.7766 10.163 46.6452 10.8385C46.5138 11.514 46.5808 12.214 46.8378 12.8508C47.0948 13.4876 47.5304 14.0329 48.0901 14.4184C48.6497 14.8038 49.3084 15.0123 49.9838 15.0177L49.9869 15.0177C50.4308 15.0339 50.873 14.9544 51.2848 14.7846C51.6965 14.6148 52.0685 14.3584 52.3765 14.0321C52.6517 13.7392 52.8655 13.3923 53.0052 13.0126C53.1449 12.6327 53.2074 12.228 53.189 11.8228L53.3014 11.8174L53.1889 11.8174C53.1889 11.683 53.1795 11.5489 53.1607 11.416H50.0954V12.0124H52.5402L52.5364 12.1309C52.5188 12.6786 52.3086 13.2016 51.9442 13.6043L51.9398 13.6092C51.5468 13.9966 51.0499 14.2564 50.5121 14.3563C49.9743 14.4562 49.4196 14.3914 48.9179 14.1701C48.4161 13.9488 47.9899 13.581 47.693 13.113C47.3965 12.6458 47.2422 12.0997 47.2493 11.5433C47.2371 11.1707 47.2985 10.7994 47.4301 10.4516C47.562 10.1029 47.7615 9.78493 48.0168 9.51678C48.2722 9.24862 48.5779 9.0358 48.9159 8.89107C49.2528 8.74678 49.6147 8.67313 49.9801 8.6745C50.3448 8.65471 50.709 8.7214 51.0442 8.86936C51.3429 9.00122 51.6112 9.1944 51.8327 9.43638L52.2688 8.99171C52.0047 8.70555 51.6826 8.48084 51.3244 8.33354L51.3223 8.33264C50.8991 8.14801 50.4435 8.05354 49.9833 8.05511L49.9804 8.05508ZM53.4139 11.8148C53.4333 12.2502 53.3659 12.685 53.2159 13.0931C53.0655 13.502 52.8352 13.8755 52.5389 14.1909C52.2089 14.5404 51.8102 14.8153 51.3692 14.9973C50.9286 15.179 50.4554 15.2641 49.9804 15.2471C49.2614 15.2411 48.56 15.0189 47.9641 14.6085C47.3678 14.1977 46.9036 13.6167 46.6298 12.9381C46.3559 12.2595 46.2845 11.5136 46.4245 10.7938C46.5646 10.0742 46.9097 9.41271 47.4167 8.89219C47.7505 8.54478 48.1507 8.27089 48.5924 8.08746C49.0339 7.90415 49.5074 7.81507 49.9839 7.82569C50.474 7.82423 50.9591 7.9248 51.4097 8.12124C51.8328 8.29546 52.2094 8.56932 52.5088 8.92043L52.5777 9.00116L51.8206 9.77317L51.7416 9.67744C51.5283 9.41874 51.259 9.21417 50.9548 9.07989C50.6506 8.94561 50.32 8.88532 49.989 8.90376L49.9823 8.90413C49.6461 8.90245 49.313 8.96981 49.003 9.10258C48.693 9.23535 48.4125 9.43058 48.1783 9.67658C47.9441 9.92257 47.761 10.2143 47.64 10.5341C47.519 10.854 47.4627 11.1955 47.4743 11.5382L47.4744 11.5438C47.4674 12.0558 47.6091 12.5585 47.8819 12.9884C48.1547 13.4183 48.5462 13.7563 49.0072 13.9595C49.4681 14.1628 49.9777 14.2223 50.4718 14.1306C50.9648 14.0391 51.4203 13.801 51.781 13.4464C52.0811 13.1136 52.2645 12.69 52.3043 12.2419H49.8704V11.1866H53.3505L53.3671 11.281C53.3981 11.4572 53.4138 11.6358 53.4139 11.8148ZM54.4038 7.98628H58.566V9.06451H55.5287V11.0145H58.296V12.0698H55.5287V14.0198H58.566V15.098H54.4038V7.98628ZM54.6288 8.21569V14.8686H58.341V14.2492H55.3037V11.8404H58.071V11.2439H55.3037V8.8351H58.341V8.21569H54.6288ZM59.2747 7.98628H64.1905V9.06451H62.2557V15.098H61.1645V9.06451H59.2747V7.98628ZM59.4996 8.21569V8.8351H61.3895V14.8686H62.0307V8.8351H63.9656V8.21569H59.4996ZM67.2728 7.98628H68.364V15.098H67.2728V7.98628ZM67.4978 8.21569V14.8686H68.139V8.21569H67.4978ZM69.2302 7.98628H74.0898V9.06451H72.2112V15.098H71.12V9.06451H69.2302V7.98628ZM69.4551 8.21569V8.8351H71.345V14.8686H71.9862V8.8351H73.8648V8.21569H69.4551ZM84.8665 7.98628H86.0987L89.2086 13.0579V7.98628H90.2998V15.098H89.225L85.9689 9.77487V15.098H84.8665V7.98628ZM85.0914 8.21569V14.8686H85.7439V8.97357L89.3498 14.8686H90.0748V8.21569H89.4336V13.8575L85.974 8.21569H85.0914ZM78.3751 9.48794C78.8832 8.97201 79.571 8.68235 80.2881 8.68235C81.0051 8.68235 81.693 8.97201 82.201 9.48794L82.2051 9.49205C82.7045 10.0534 82.981 10.7843 82.981 11.5421C82.981 12.3 82.7044 13.0308 82.205 13.5921L82.2011 13.5965C81.6931 14.1124 81.0051 14.402 80.2881 14.402C79.571 14.402 78.8832 14.1123 78.3751 13.5964L78.4544 13.5151L78.3711 13.5921C77.8717 13.0308 77.5951 12.3 77.5951 11.5421C77.5951 10.7843 77.8717 10.0535 78.3711 9.49215L78.3751 9.48794ZM78.5359 13.4359C79.0016 13.9077 79.6315 14.1725 80.2881 14.1725C80.9446 14.1725 81.5745 13.9077 82.0403 13.4359C82.5009 12.917 82.756 12.2421 82.756 11.5421C82.756 10.8422 82.5009 10.1673 82.0403 9.64843C81.5745 9.17661 80.9446 8.91176 80.2881 8.91176C79.6315 8.91176 79.0016 9.17661 78.5359 9.64843C78.0752 10.1673 77.8201 10.8422 77.8201 11.5421C77.8201 12.2421 78.0752 12.917 78.5359 13.4359Z" fill="white"/>
<path d="M11.7721 8.64839C11.4055 9.09701 11.2204 9.67133 11.2547 10.2543V35.6271C11.2204 36.21 11.4055 36.7843 11.7721 37.233L11.8509 37.3132L25.7886 23.1127V22.7801L11.8509 8.5681L11.7721 8.64839Z" fill="url(#paint0_linear_2106_6816)"/>
<path d="M30.4007 27.8502L25.7885 23.1129V22.7803L30.4007 18.0315L30.5019 18.0888L36.0252 21.2891C37.6001 22.1953 37.6001 23.6864 36.0252 24.6041L30.5244 27.7929L30.4007 27.8502Z" fill="url(#paint1_linear_2106_6816)"/>
<path d="M30.5358 27.7815L25.7886 22.9409L11.7722 37.2332C12.0932 37.521 12.5027 37.6853 12.93 37.6979C13.3572 37.7105 13.7753 37.5704 14.112 37.302L30.547 27.7815" fill="url(#paint2_linear_2106_6816)"/>
<path d="M30.5357 18.1003L14.1007 8.57975C13.764 8.31135 13.3459 8.17134 12.9187 8.18391C12.4914 8.19647 12.0819 8.36083 11.7609 8.64857L25.7886 22.9409L30.5357 18.1003Z" fill="url(#paint3_linear_2106_6816)"/>
<path opacity="0.2" d="M30.4008 27.6782L14.1008 37.1414C13.776 37.389 13.3814 37.5228 12.9759 37.5228C12.5704 37.5228 12.1757 37.389 11.851 37.1414L11.7722 37.2217L11.851 37.302C12.175 37.5514 12.5699 37.6863 12.9759 37.6863C13.3818 37.6863 13.7768 37.5514 14.1008 37.302L30.5358 27.7815L30.4008 27.6782Z" fill="black"/>
<path opacity="0.12" d="M11.7721 37.0726C11.4055 36.624 11.2204 36.0497 11.2547 35.4668V35.6388C11.2204 36.2218 11.4055 36.7961 11.7721 37.2447L11.8509 37.1644L11.7721 37.0726ZM36.0253 24.4321L30.4007 27.6783L30.5019 27.7815L36.0253 24.5927C36.3387 24.4426 36.6077 24.2108 36.8052 23.9208C37.0027 23.6308 37.1217 23.2928 37.1502 22.9409C37.0869 23.2606 36.9526 23.5613 36.7576 23.8198C36.5626 24.0783 36.3121 24.2878 36.0253 24.4321Z" fill="black"/>
<path opacity="0.25" d="M14.1007 8.73987L36.0253 21.4492C36.3121 21.5936 36.5626 21.803 36.7577 22.0615C36.9527 22.32 37.087 22.6207 37.1502 22.9404C37.1217 22.5885 37.0027 22.2505 36.8052 21.9605C36.6077 21.6705 36.3387 21.4388 36.0253 21.2886L14.1007 8.57928C12.5259 7.67311 11.2435 8.43017 11.2435 10.2655V10.4375C11.2772 8.59075 12.5371 7.8337 14.1007 8.73987V8.73987Z" fill="white"/>
</g>
<defs>
<linearGradient id="paint0_linear_2106_6816" x1="24.5512" y1="9.99044" x2="5.30726" y2="28.8629" gradientUnits="userSpaceOnUse">
<stop stop-color="#00A0FF"/>
<stop offset="0.01" stop-color="#00A1FF"/>
<stop offset="0.26" stop-color="#00BEFF"/>
<stop offset="0.51" stop-color="#00D2FF"/>
<stop offset="0.76" stop-color="#00DFFF"/>
<stop offset="1" stop-color="#00E3FF"/>
</linearGradient>
<linearGradient id="paint1_linear_2106_6816" x1="38.0838" y1="22.9409" x2="10.8722" y2="22.9409" gradientUnits="userSpaceOnUse">
<stop stop-color="#FFE000"/>
<stop offset="0.41" stop-color="#FFBD00"/>
<stop offset="0.78" stop-color="#FFA500"/>
<stop offset="1" stop-color="#FF9C00"/>
</linearGradient>
<linearGradient id="paint2_linear_2106_6816" x1="27.9597" y1="25.5792" x2="1.85799" y2="51.1659" gradientUnits="userSpaceOnUse">
<stop stop-color="#FF3A44"/>
<stop offset="1" stop-color="#C31162"/>
</linearGradient>
<linearGradient id="paint3_linear_2106_6816" x1="8.23994" y1="0.20626" x2="19.8918" y2="11.6332" gradientUnits="userSpaceOnUse">
<stop stop-color="#32A071"/>
<stop offset="0.07" stop-color="#2DA771"/>
<stop offset="0.48" stop-color="#15CF74"/>
<stop offset="0.8" stop-color="#06E775"/>
<stop offset="1" stop-color="#00F076"/>
</linearGradient>
<clipPath id="clip0_2106_6816">
<rect width="151.863" height="45.8821" fill="white" transform="translate(0.0281677)"/>
</clipPath>
</defs>
</svg>
