<svg width="1440" height="727" viewBox="0 0 1440 727" fill="none" xmlns="http://www.w3.org/2000/svg">
<g clip-path="url(#clip0_2199_8996)">
<g opacity="0.05">
<path fill-rule="evenodd" clip-rule="evenodd" d="M1049.76 541.221C1056.14 613.342 986.055 670.5 935.219 729.411C893.024 778.308 848.102 821.944 785.829 847.077C709.398 877.925 619.345 921.732 550.615 884.638C482.057 847.638 499.579 755.281 483.194 683.746C467.36 614.619 421.222 545.338 458.008 480.333C496.271 412.719 584.026 384.415 664.256 363.793C745.082 343.017 830.905 332.701 903.097 365.927C978.517 400.639 1042.91 463.692 1049.76 541.221Z" stroke="#414141"/>
<path fill-rule="evenodd" clip-rule="evenodd" d="M1247.24 498.244C1257.93 619.214 1140.37 715.088 1055.1 813.902C984.328 895.919 908.979 969.11 804.527 1011.27C676.325 1063.01 525.276 1136.49 409.992 1074.27C294.997 1012.21 324.388 857.295 296.905 737.307C270.346 621.356 192.956 505.149 254.66 396.113C318.839 282.701 466.035 235.226 600.607 200.636C736.18 165.788 880.134 148.484 1001.22 204.216C1127.73 262.439 1235.74 368.2 1247.24 498.244Z" stroke="#414141"/>
<path fill-rule="evenodd" clip-rule="evenodd" d="M1019.31 548.217C1025 612.663 962.378 663.74 916.951 716.383C879.245 760.077 839.103 799.07 783.456 821.529C715.157 849.095 634.686 888.24 573.269 855.094C512.006 822.03 527.663 739.5 513.022 675.577C498.873 613.805 457.643 551.896 490.516 493.807C524.707 433.387 603.125 408.095 674.818 389.667C747.045 371.101 823.735 361.883 888.246 391.574C955.642 422.592 1013.19 478.936 1019.31 548.217Z" stroke="#414141"/>
<path fill-rule="evenodd" clip-rule="evenodd" d="M1196.15 509.978C1205.7 618.076 1100.66 703.75 1024.46 792.049C961.217 865.34 893.885 930.743 800.547 968.415C685.985 1014.65 551.008 1080.31 447.99 1024.71C345.231 969.256 371.495 830.825 346.936 723.604C323.203 619.991 254.047 516.148 309.186 418.713C366.537 317.368 498.07 274.945 618.324 244.035C739.472 212.895 868.109 197.432 976.315 247.234C1089.36 299.263 1185.88 393.77 1196.15 509.978Z" stroke="#414141"/>
<path fill-rule="evenodd" clip-rule="evenodd" d="M1150.81 519.758C1159.92 618.743 1066.2 696.621 998.357 777.049C942.042 843.806 882.024 903.324 798.556 937.328C696.11 979.063 575.463 1038.47 482.844 987.063C390.459 935.782 413.295 809.217 390.737 710.959C368.939 616.007 306.426 520.614 355.351 431.718C406.24 339.254 523.918 301.095 631.545 273.417C739.972 245.532 855.192 232.034 952.431 278.165C1054.02 326.359 1141.01 413.347 1150.81 519.758Z" stroke="#414141"/>
<path fill-rule="evenodd" clip-rule="evenodd" d="M1416.72 462.242C1432 628.274 1274.81 758.902 1161.01 893.807C1066.55 1005.78 965.877 1105.61 825.873 1162.65C654.035 1232.65 451.669 1332.3 296.316 1246.07C141.354 1160.06 179.658 947.765 141.821 782.952C105.258 623.685 0.402169 463.679 82.4668 314.569C167.824 159.477 365.211 95.4711 545.738 49.0448C727.608 2.2729 920.87 -20.3676 1083.97 57.0098C1254.37 137.847 1400.29 283.756 1416.72 462.242Z" stroke="#414141"/>
<path fill-rule="evenodd" clip-rule="evenodd" d="M1117.19 526.214C1125.52 616.671 1039.88 687.839 977.878 761.338C926.415 822.343 871.568 876.733 795.292 907.807C701.672 945.947 591.42 1000.24 506.781 953.257C422.355 906.395 443.224 790.735 422.609 700.942C402.689 614.171 345.562 526.997 390.272 445.759C436.776 361.263 544.316 326.391 642.67 301.097C741.755 275.615 847.047 263.28 935.909 305.437C1028.74 349.478 1108.24 428.972 1117.19 526.214Z" stroke="#414141"/>
<path fill-rule="evenodd" clip-rule="evenodd" d="M1360.34 473.072C1374.3 624.799 1230.65 744.172 1126.66 867.454C1040.34 969.781 948.34 1061.01 820.398 1113.13C663.365 1177.11 478.435 1268.17 336.467 1189.37C194.856 1110.76 229.86 916.763 195.283 766.15C161.87 620.605 66.0482 474.385 141.042 338.122C219.045 196.392 399.426 137.901 564.399 95.4749C730.599 52.7327 907.21 32.0428 1056.26 102.754C1211.98 176.626 1345.32 309.964 1360.34 473.072Z" stroke="#414141"/>
<path fill-rule="evenodd" clip-rule="evenodd" d="M1080.17 535.504C1087.65 616.69 1010.78 680.563 955.137 746.528C908.949 801.281 859.724 850.096 791.266 877.985C707.241 912.216 608.29 960.942 532.326 918.777C456.554 876.718 475.283 772.912 456.782 692.323C438.903 614.446 387.632 536.207 427.759 463.296C469.497 387.46 566.014 356.163 654.287 333.462C743.216 310.591 837.716 299.521 917.47 337.356C1000.79 376.884 1072.14 448.229 1080.17 535.504Z" stroke="#414141"/>
<path fill-rule="evenodd" clip-rule="evenodd" d="M1298.24 488.655C1310.78 624.831 1181.85 731.968 1088.51 842.614C1011.04 934.453 928.473 1016.33 813.645 1063.11C672.708 1120.53 506.732 1202.26 379.315 1131.53C252.219 1060.99 283.635 886.869 252.602 751.694C222.614 621.067 136.614 489.834 203.921 367.537C273.929 240.334 435.821 187.838 583.885 149.761C733.05 111.399 891.559 92.8302 1025.33 156.293C1165.09 222.594 1284.77 342.265 1298.24 488.655Z" stroke="#414141"/>
</g>
</g>
<defs>
<clipPath id="clip0_2199_8996">
<rect width="1440" height="727" fill="white"/>
</clipPath>
</defs>
</svg>
